SplineFontDB: 3.0
FontName: Fanwood
FullName: Fanwood
FamilyName: Fanwood
Weight: Regular
Copyright: Created by trashman with FontForge 2.0 (http://fontforge.sf.net)
UComments: "2010-10-22: Created." 
Version: 001.000
ItalicAngle: 0
UnderlinePosition: -100
UnderlineWidth: 50
Ascent: 750
Descent: 250
LayerCount: 3
Layer: 0 0 "Back"  1
Layer: 1 0 "Fore"  0
Layer: 2 0 "backup"  0
NeedsXUIDChange: 1
XUID: [1021 658 797806517 11107023]
OS2Version: 0
OS2_WeightWidthSlopeOnly: 0
OS2_UseTypoMetrics: 1
CreationTime: 1287776574
ModificationTime: 1287907603
OS2TypoAscent: 0
OS2TypoAOffset: 1
OS2TypoDescent: 0
OS2TypoDOffset: 1
OS2TypoLinegap: 0
OS2WinAscent: 0
OS2WinAOffset: 1
OS2WinDescent: 0
OS2WinDOffset: 1
HheadAscent: 0
HheadAOffset: 1
HheadDescent: 0
HheadDOffset: 1
OS2Vendor: 'PfEd'
MarkAttachClasses: 1
DEI: 91125
Encoding: UnicodeBmp
UnicodeInterp: none
NameList: Adobe Glyph List
DisplaySize: -48
AntiAlias: 1
FitToEm: 1
WinInfo: 96 12 4
BeginPrivate: 9
BlueValues 7 [-13 0]
OtherBlues 2 []
BlueScale 8 0.039625
BlueShift 1 7
BlueFuzz 1 0
StdHW 4 [26]
StemSnapH 28 [21 26 30 34 45 50 76 88 94]
StdVW 4 [68]
StemSnapV 28 [53 57 62 64 68 75 82 95 99]
EndPrivate
BeginChars: 65536 63

StartChar: a
Encoding: 97 97 0
Width: 382
VWidth: 0
Flags: HW
HStem: -16 50<274 321.5> -11 35<107.756 190.445> 375 28<128.095 205.73>
VStem: 29 61<41.0555 139.117> 43 53<272.846 347.465> 240 67<69.5884 200.999 221.097 349.599> 240 57<42.9648 200.999 221.097 285.35>
LayerCount: 3
Fore
SplineSet
193 403 m 0x6c
 261 403 307 362 307 287 c 0x6c
 307 254 297 79 297 69 c 0
 297 61 310 34 320 34 c 0
 323 34 353 58 356 58 c 0
 362 58 369 51 369 44 c 0
 369 42 368 40 366 38 c 0
 336 16 323 8 290 -12 c 0
 286 -15 281 -16 277 -16 c 0xa2
 271 -16 265 -13 262 -9 c 0
 256 -2 250 8 243 18 c 0
 237 27 234 30 231 30 c 0
 228 30 223 26 215 20 c 0
 195 7 159 -11 121 -11 c 0
 73 -11 29 10 29 80 c 0x72
 29 173 154 203 232 221 c 0
 240 223 241 229 241 237 c 2
 240 276 l 2
 239 323 226 375 155 375 c 0
 142 375 124 372 111 358 c 0
 102 348 96 337 96 319 c 0
 96 315 97 306 97 302 c 0
 97 286 81 279 70 269 c 0
 67 267 58 260 52 260 c 0
 43 260 43 276 43 286 c 0
 43 335 74 365 112 382 c 1
 138 395 168 403 193 403 c 0x6c
236 201 m 0
 232 201 177 188 148 174 c 0
 118 160 90 136 90 101 c 0x74
 90 77 94 56 106 43 c 0
 119 29 139 24 157 24 c 0
 180 24 202 33 219 43 c 0
 239 55 240 64 240 72 c 2
 242 192 l 2
 242 199 241 201 236 201 c 0
EndSplineSet
EndChar

StartChar: b
Encoding: 98 98 1
Width: 469
VWidth: 0
Flags: HW
HStem: -11 24<187.514 291.076> 359 31<186.184 289.655> 689 24<23.0593 94.0612>
VStem: 90 64<-5.5 326.756> 96 80<469.998 688.994> 97 67<104.753 352.593 366.822 610.245> 376 72<97.8601 272.49>
LayerCount: 3
Fore
SplineSet
164 377 m 24xe6
 164 372 163 363 170 367 c 0
 193 380 227 390 269 390 c 0
 382 390 448 294 448 185 c 8
 448 72 348 -11 234 -11 c 0
 176 -11 136 20 135 20 c 0
 132 20 120 9 106 -6 c 0
 100 -12 90 -12 90 1 c 0xf2
 90 154 97 204 97 362 c 0xe6
 97 461 96 572 96 674 c 0
 96 681 93 689 88 689 c 0
 84 689 51 685 37 684 c 0
 25 683 23 691 23 704 c 0
 23 708 27 713 31 713 c 0
 62 715 159 728 170 728 c 0
 176 728 176 719 176 713 c 0xea
 176 707 166 508 164 377 c 24xe6
176 350 m 24xea
 169 348 162 345 162 338 c 0
 160 237 154 103 154 70 c 0xf2
 154 24 214 13 241 13 c 0
 333 13 376 107 376 191 c 0
 376 280 306 359 234 359 c 0
 211 359 198 356 176 350 c 24xea
EndSplineSet
EndChar

StartChar: c
Encoding: 99 99 2
Width: 379
VWidth: 0
Flags: HW
HStem: -12 45<157.942 300.122> 379 22<164.494 250.7>
VStem: 23 62<112.335 292.826> 293 57<285.237 345.415>
LayerCount: 3
Fore
SplineSet
23 189 m 0
 23 330 117 401 221 401 c 0
 282 401 349 362 349 309 c 0
 349 291 342 285 330 278 c 0
 321 273 313 270 308 270 c 0
 299 270 296 279 293 288 c 0
 277 333 272 379 209 379 c 0
 121 379 85 278 85 199 c 0
 85 122 138 33 228 33 c 0
 269 33 306 44 329 53 c 0
 338 56 346 62 348 62 c 0
 352 62 359 59 359 49 c 0
 359 43 348 36 342 32 c 0
 294 2 248 -12 206 -12 c 0
 83 -12 23 81 23 189 c 0
EndSplineSet
EndChar

StartChar: d
Encoding: 100 100 3
Width: 470
VWidth: 0
Flags: HW
LayerCount: 3
Fore
SplineSet
442 17 m 0
 455 19 456 18 456 4 c 0
 456 -9 453 -13 448 -14 c 0
 405 -20 337 -29 332 -29 c 0
 325 -29 323 -24 323 -16 c 2
 323 12 l 2
 323 24 308 18 298 12 c 0
 269 -4 240 -16 200 -16 c 0
 110 -16 26 51 26 187 c 0
 26 286 113 388 224 388 c 0
 284 388 322 366 324 366 c 0
 327 366 327 376 327 383 c 24
 325 499 324 565 318 681 c 24
 318 686 316 693 311 693 c 0
 308 693 261 684 254 684 c 0
 248 684 247 686 245 700 c 0
 244 707 246 717 252 718 c 0
 306 725 380 734 385 734 c 0
 398 734 401 727 401 707 c 0
 401 527 395 320 395 156 c 0
 395 108 395 62 396 22 c 0
 396 17 398 11 402 11 c 0
 407 11 430 15 442 17 c 0
323 59 m 0
 323 147 328 217 328 310 c 0
 328 336 284 361 231 361 c 0
 152 361 100 278 100 187 c 0
 100 95 159 26 231 26 c 0
 274 26 296 33 311 40 c 0
 321 45 323 49 323 59 c 0
EndSplineSet
EndChar

StartChar: e
Encoding: 101 101 4
Width: 409
VWidth: 0
Flags: HW
LayerCount: 3
Fore
SplineSet
209 371 m 0
 162 371 125 327 109 279 c 0
 107 274 105 266 105 259 c 0
 105 253 106 248 114 247 c 0
 124 246 153 246 183 246 c 2
 225 246 l 2
 263 246 302 246 302 255 c 0
 302 353 250 371 209 371 c 0
220 398 m 0
 316 398 371 332 371 246 c 2
 371 236 l 2
 371 225 295 223 288 223 c 2
 109 223 l 2
 98 223 96 204 96 190 c 0
 96 84 173 33 245 33 c 0
 289 33 314 49 340 71 c 0
 345 75 360 91 364 91 c 0
 372 91 378 85 378 79 c 0
 378 69 373 66 368 61 c 0
 331 26 283 -12 214 -12 c 0
 98 -12 30 71 30 188 c 0
 30 301 103 398 220 398 c 0
EndSplineSet
EndChar

StartChar: f
Encoding: 102 102 5
Width: 316
VWidth: 0
Flags: HW
HStem: 0 25<32.0146 87.8258 163.696 247.975> 337 30<38.0022 84.6399 156.082 288.518> 698 31<173.149 238.164>
VStem: 80 73<389.286 645.88> 88 68<25 336.849 370.162 520.529> 248 66<620.817 693.403>
LayerCount: 3
Fore
SplineSet
160 71 m 2xec
 160 36 166 25 178 25 c 2
 234 23 l 2
 246 23 248 20 248 11 c 0
 248 2 247 -2 234 -2 c 0
 215 -2 185 0 122 0 c 0
 80 0 53 -2 46 -2 c 0
 33 -2 32 3 32 14 c 0
 32 21 37 22 46 23 c 2
 81 25 l 2
 88 25 89 42 89 63 c 2
 89 323 l 2xec
 89 336 87 337 74 337 c 2
 57 337 l 2
 41 337 38 338 38 352 c 0
 38 367 41 367 57 367 c 2
 76 367 l 2
 85 367 85 376 85 387 c 0
 85 436 80 470 80 523 c 0
 80 590 93 674 153 706 c 0
 175 718 205 730 237 730 c 0
 281 730 315 700 315 659 c 0
 315 636 276 602 262 602 c 0
 253 602 248 608 248 616 c 0
 248 653 248 698 211 698 c 0
 194 698 179 693 170 678 c 0
 155 654 153 552 153 523 c 2xf4
 154 387 l 2
 154 372 155 370 175 370 c 2
 281 370 l 2
 290 370 293 369 293 365 c 0
 293 363 292 360 290 355 c 0
 284 341 284 340 264 340 c 2
 175 340 l 2
 158 340 156 339 156 328 c 2
 160 71 l 2xec
EndSplineSet
EndChar

StartChar: g
Encoding: 103 103 6
Width: 451
VWidth: 0
Flags: HW
HStem: -225 22<143.796 288.105> -12 46<84.248 168.998> 323 50<370.713 426.258> 377 27<169.086 266.01>
VStem: 35 42<-165.785 -72.6182> 54 66<181.57 326.613> 61 23<34.2717 58.053> 316 63<182.46 324.797> 369 54<-145.341 -63.6767>
LayerCount: 3
Fore
SplineSet
423 -75 m 0xf280
 423 -177 315 -225 211 -225 c 0
 128 -225 35 -198 35 -118 c 0xf880
 35 -64 111 -34 153 -22 c 0
 159 -20 169 -17 169 -14 c 0
 169 -12 166 -11 156 -11 c 0
 146 -11 125 -12 115 -12 c 0
 98 -12 78 -10 74 4 c 0
 67 26 61 48 61 57 c 0xf2
 61 66 68 75 78 77 c 0
 103 83 139 88 170 94 c 0
 180 96 186 97 186 99 c 0
 186 101 180 104 170 107 c 0
 116 124 54 172 54 255 c 0
 54 343 138 404 227 404 c 0
 276 404 318 376 331 361 c 0
 335 356 341 356 348 358 c 0
 359 362 404 373 418 373 c 0
 423 373 425 369 426 356 c 0
 426 352 427 345 427 340 c 0
 427 333 426 327 422 327 c 0
 414 326 385 325 370 323 c 0
 362 322 366 315 369 308 c 0xf480
 375 295 379 280 379 266 c 0xf1
 379 190 335 131 264 104 c 0
 218 86 154 76 87 57 c 0
 84 56 84 53 84 49 c 0
 84 43 86 35 91 34 c 0
 218 26 423 48 423 -75 c 0xf280
212 -203 m 0
 287 -203 369 -174 369 -102 c 0
 369 -45 273 -31 207 -31 c 0
 158 -31 77 -55 77 -121 c 0
 77 -179 152 -203 212 -203 c 0
216 377 m 0
 158 377 120 328 120 264 c 0
 120 179 170 142 215 113 c 0
 220 110 224 108 228 108 c 0
 233 108 237 110 243 115 c 0
 280 144 316 184 316 265 c 0xf5
 316 324 281 377 216 377 c 0
EndSplineSet
EndChar

StartChar: h
Encoding: 104 104 7
Width: 509
VWidth: 0
Flags: HW
HStem: -2 26<29.0037 87.6987 165.472 219.992 289.004 348.625 418.818 470.992> 356 34<217.957 315.131> 691 25<23.0036 87.3434>
VStem: 90 82<469.989 690.996> 91 68<24 338.041 352.004 620.502> 352 66<24 322.251>
LayerCount: 3
Fore
SplineSet
90 669 m 0xf4
 89 686 89 691 79 691 c 0
 74 691 47 689 34 688 c 0
 28 688 23 688 23 704 c 0
 23 712 26 716 33 716 c 0
 47 717 158 729 164 729 c 0
 171 729 173 726 172 714 c 0xf4
 170 696 159 455 159 386 c 2
 159 371 l 2
 159 357 159 352 164 352 c 0
 166 352 169 353 174 355 c 0
 213 372 251 390 302 390 c 0
 394 390 420 331 420 243 c 0
 420 184 418 118 418 66 c 0
 418 42 419 24 422 24 c 2
 457 24 l 2
 469 24 471 21 471 12 c 0
 471 3 470 -2 457 -2 c 0
 438 -2 415 0 386 0 c 0
 361 0 332 -2 302 -2 c 0
 289 -2 289 1 289 12 c 0
 289 21 294 24 304 24 c 2
 344 24 l 2
 352 24 352 105 352 122 c 2
 352 221 l 2
 352 292 336 356 268 356 c 0
 225 356 192 344 174 335 c 0
 161 328 159 327 159 320 c 2
 159 158 l 2
 159 89 163 24 171 24 c 2
 206 24 l 2
 218 24 220 21 220 12 c 0
 220 3 219 -2 206 -2 c 0
 187 -2 155 0 126 0 c 0
 101 0 72 -2 42 -2 c 0
 29 -2 29 1 29 12 c 0
 29 21 34 24 44 24 c 2
 76 24 l 2
 89 24 88 38 89 57 c 0
 91 95 91 237 91 279 c 0xec
 91 468 90 664 90 669 c 0xf4
EndSplineSet
EndChar

StartChar: i
Encoding: 105 105 8
Width: 232
VWidth: 0
Flags: HW
HStem: -2 25<29.0037 93.6114 158.474 211.986> 358 21<25.0119 90.3771> 519 88<92.7901 166.706>
VStem: 82 95<529.901 595.341> 94 64<23 362.078>
LayerCount: 3
Fore
SplineSet
94 51 m 2xe8
 94 221 l 2
 94 262 94 301 91 348 c 0
 90 363 89 364 79 363 c 0
 73 362 40 358 36 358 c 0
 29 358 25 360 25 368 c 0
 25 377 29 378 43 379 c 0
 84 383 149 395 154 395 c 0
 161 395 162 390 162 375 c 0
 161 322 158 279 158 226 c 2
 158 51 l 2
 158 28 159 24 169 24 c 2
 198 24 l 2
 210 24 212 21 212 12 c 0
 212 3 211 -2 198 -2 c 0
 179 -2 151 0 126 0 c 0
 101 0 61 -2 42 -2 c 0
 29 -2 29 1 29 12 c 0
 29 21 34 23 44 23 c 2
 83 23 l 2
 94 23 94 31 94 51 c 2xe8
177 571 m 0xf0
 177 537 146 519 121 519 c 0
 101 519 82 531 82 555 c 0
 82 589 115 607 138 607 c 0
 158 607 177 595 177 571 c 0xf0
EndSplineSet
EndChar

StartChar: j
Encoding: 106 106 9
Width: 268
VWidth: 0
Flags: HW
HStem: -232 76<22.5132 78.9976> 357 27<46.0579 126.302> 545 94<94.6062 170.115>
VStem: 83 99<557.477 627.146> 127 70<-104.749 362.992>
LayerCount: 3
Fore
SplineSet
179 600 m 0xf0
 179 566 148 548 123 548 c 0
 103 548 84 560 84 584 c 0
 84 618 117 636 140 636 c 0
 160 636 179 624 179 600 c 0xf0
127 115 m 2xe8
 127 339 l 2
 127 352 126 363 118 363 c 0
 111 363 62 357 58 357 c 0
 51 357 46 361 46 369 c 0
 46 378 50 383 60 384 c 0
 103 387 184 395 191 396 c 1
 192 396 l 2
 198 396 199 389 199 375 c 0
 199 355 197 279 197 226 c 2
 197 51 l 2
 197 28 195 -89 152 -161 c 0
 137 -186 110 -195 84 -208 c 0
 57 -221 35 -232 24 -232 c 0
 16 -232 9 -224 9 -215 c 0
 9 -204 25 -156 51 -156 c 0
 66 -156 100 -163 110 -163 c 0
 133 -163 139 -151 139 -135 c 0
 139 -73 127 -57 127 115 c 2xe8
EndSplineSet
EndChar

StartChar: k
Encoding: 107 107 10
Width: 446
VWidth: 0
Flags: W
HStem: -2 24<35.0022 97.4324 159.415 205.999 282.002 318.999 392.924 435.997> 193 20<161.892 199.372> 364 24<260.001 293.841 340.54 401.974> 688 33<24.0331 94.2158>
VStem: 96 81<475.934 692> 98 61<22 192.997 213 475.934>
DStem2: 253 213 221 161 0.615202 -0.78837<-17.2132 188.702>
LayerCount: 3
Fore
SplineSet
420 21 m 0xf8
 432 21 436 19 436 10 c 0
 436 1 435 -2 422 -2 c 0
 409 -2 382 0 365 0 c 0
 340 0 312 -2 295 -2 c 0
 282 -2 282 -1 282 10 c 0
 282 19 285 20 295 20 c 2
 309 20 l 2
 318 20 319 22 319 25 c 0
 319 28 315 34 311 40 c 2
 221 161 l 2
 213 171 197 193 170 193 c 0
 159 193 159 189 159 177 c 2
 159 49 l 2
 159 26 160 22 170 22 c 2
 192 22 l 2
 204 22 206 19 206 10 c 0
 206 1 205 -2 192 -2 c 0
 179 -2 151 0 130 0 c 0
 105 0 65 -2 48 -2 c 0
 35 -2 35 -1 35 10 c 0
 35 19 38 22 48 22 c 2
 86 22 l 2
 97 22 98 29 98 49 c 0xf4
 98 407 97 478 96 675 c 0
 96 692 91 692 81 692 c 0
 75 692 48 688 38 688 c 0
 26 688 24 693 24 707 c 0
 24 715 29 721 40 721 c 0
 80 722 163 730 169 730 c 0
 176 730 177 729 177 717 c 2
 177 717 161 283 161 258 c 2
 161 233 l 2
 161 216 165 213 177 213 c 2
 199 213 l 2
 209 213 214 223 221 232 c 0
 249 269 273 305 296 346 c 0
 303 359 299 365 291 365 c 2
 274 365 l 2
 262 365 260 365 260 376 c 0
 260 388 261 388 274 388 c 2
 318 388 l 2
 349 388 381 389 390 389 c 0
 398 389 402 387 402 378 c 0
 402 364 400 364 388 364 c 2
 363 364 l 2
 348 364 334 346 325 334 c 2
 255 245 l 2
 248 236 244 232 244 228 c 0
 244 224 247 220 253 213 c 2
 388 40 l 2
 397 28 404 21 420 21 c 0xf8
EndSplineSet
EndChar

StartChar: z
Encoding: 122 122 11
Width: 187
VWidth: 0
Flags: HW
LayerCount: 3
Fore
SplineSet
46 168 m 0
 46 194 68 216 94 216 c 0
 120 216 142 194 142 168 c 0
 142 142 120 120 94 120 c 0
 68 120 46 142 46 168 c 0
EndSplineSet
EndChar

StartChar: l
Encoding: 108 108 12
Width: 227
VWidth: 0
Flags: HW
HStem: -2 23<19.0022 84.2799 148.537 206.997> 691 24<10.0037 76.5325> 705 20G<141 147.5>
VStem: 77 75<436.151 690.997> 85 63<21 269.5>
LayerCount: 3
Fore
SplineSet
26 714 m 0xd0
 65 715 138 725 144 725 c 0
 151 725 152 724 152 712 c 2xb0
 148 49 l 2
 148 26 149 21 159 21 c 2
 193 21 l 2
 205 21 207 19 207 10 c 0
 207 1 206 -2 193 -2 c 0
 175 -2 145 0 116 0 c 0
 91 0 49 -2 32 -2 c 0
 19 -2 19 -1 19 10 c 0
 19 19 22 21 32 21 c 2
 73 21 l 2
 84 21 85 29 85 49 c 0xa8
 85 407 81 474 77 670 c 0
 77 687 75 691 65 691 c 0
 60 691 40 688 28 687 c 0
 12 686 10 687 10 703 c 0
 10 711 15 714 26 714 c 0xd0
EndSplineSet
EndChar

StartChar: m
Encoding: 109 109 13
Width: 729
VWidth: 0
Flags: HWO
LayerCount: 3
Fore
SplineSet
90 331 m 2
 90 349 87 353 78 353 c 0
 73 353 38 350 33 350 c 0
 27 350 25 356 25 363 c 0
 25 369 30 375 35 375 c 0
 49 376 142 383 148 383 c 0
 155 383 156 381 155 369 c 2
 155 369 155 353 154 342 c 0
 153 322 162 331 171 338 c 0
 201 359 258 389 307 389 c 0
 343 389 369 376 386 350 c 0
 397 334 392 334 408 344 c 0
 439 364 490 384 528 384 c 0
 618 384 645 326 645 240 c 0
 645 156 642 83 642 35 c 0
 642 28 643 24 647 24 c 2
 682 24 l 2
 694 24 696 21 696 12 c 0
 696 3 695 -2 682 -2 c 0
 663 -2 642 0 613 0 c 0
 588 0 561 -2 531 -2 c 0
 518 -2 518 1 518 12 c 0
 518 21 523 24 533 24 c 2
 569 24 l 2
 578 24 578 169 578 216 c 0
 578 283 571 348 498 348 c 0
 447 348 398 319 398 316 c 0
 400 294 402 265 402 240 c 2
 400 66 l 2
 400 42 400 24 403 24 c 2
 435 24 l 2
 447 24 449 21 449 12 c 0
 449 3 448 -2 435 -2 c 0
 416 -2 400 0 371 0 c 0
 346 0 329 -2 299 -2 c 0
 286 -2 283 1 283 12 c 0
 283 21 286 24 296 24 c 2
 332 24 l 2
 338 24 340 202 340 216 c 0
 340 284 332 350 268 350 c 0
 225 350 195 334 174 318 c 0
 162 309 160 305 159 297 c 0
 155 233 155 171 155 118 c 2
 155 68 l 2
 155 29 155 24 174 24 c 2
 197 24 l 2
 209 24 211 21 211 12 c 0
 211 3 210 -2 197 -2 c 0
 178 -2 151 0 126 0 c 0
 101 0 59 -2 43 -2 c 0
 35 -2 30 0 30 11 c 0
 30 20 32 22 42 22 c 2
 76 22 l 2
 85 22 87 38 89 57 c 0
 91 77 91 118 91 163 c 2
 90 331 l 2
EndSplineSet
EndChar

StartChar: n
Encoding: 110 110 14
Width: 501
VWidth: 0
Flags: HW
LayerCount: 3
Fore
SplineSet
92 326 m 0xf4
 91 347 89 352 79 352 c 0
 74 352 47 350 34 349 c 0
 29 349 25 349 25 358 c 0
 25 361 27 377 35 377 c 0
 49 378 148 386 154 386 c 0
 161 386 162 383 161 371 c 2xf4
 161 371 160 355 160 344 c 0
 160 339 160 332 162 332 c 0
 164 332 170 337 174 340 c 0
 204 361 251 389 302 389 c 4
 388 389 420 328 420 242 c 0
 420 183 416 118 416 66 c 0
 416 42 417 24 420 24 c 2
 457 24 l 2
 469 24 471 21 471 12 c 0
 471 3 470 -2 457 -2 c 0
 438 -2 415 0 386 0 c 0
 361 0 332 -2 302 -2 c 0
 289 -2 289 1 289 12 c 0
 289 21 294 24 304 24 c 2
 344 24 l 2
 353 24 356 196 356 218 c 0
 356 289 338 351 268 351 c 0
 225 351 198 335 174 318 c 0
 161 309 160 303 160 295 c 0
 160 209 153 135 153 68 c 0
 153 29 154 24 174 24 c 2
 201 24 l 2
 213 24 215 21 215 12 c 0
 215 3 214 -2 201 -2 c 0
 182 -2 151 0 126 0 c 0
 101 0 56 -2 40 -2 c 0
 32 -2 27 0 27 11 c 0
 27 20 29 24 39 24 c 2
 76 24 l 2
 85 24 86 38 88 57 c 0
 91 85 93 161 93 220 c 0
 93 252 93 299 92 326 c 0xf4
EndSplineSet
EndChar

StartChar: o
Encoding: 111 111 15
Width: 439
VWidth: 0
Flags: HW
HStem: -13 21<183.077 264.826> 375 23<181.563 271.495>
VStem: 39 67<92.715 291.416> 342 69<99.6511 293.678>
LayerCount: 3
Fore
SplineSet
227 375 m 0
 134 375 106 272 106 184 c 0
 106 105 143 8 222 8 c 0
 314 8 342 117 342 207 c 0
 342 285 311 375 227 375 c 0
234 398 m 4
 337 398 411 309 411 196 c 0
 411 76 323 -13 218 -13 c 0
 111 -13 39 83 39 192 c 0
 39 310 116 398 234 398 c 4
EndSplineSet
EndChar

StartChar: p
Encoding: 112 112 16
Width: 187
VWidth: 0
Flags: HW
LayerCount: 3
Fore
SplineSet
46 168 m 4
 46 194 68 216 94 216 c 4
 120 216 142 194 142 168 c 4
 142 142 120 120 94 120 c 4
 68 120 46 142 46 168 c 4
EndSplineSet
EndChar

StartChar: q
Encoding: 113 113 17
Width: 187
VWidth: 0
Flags: HW
LayerCount: 3
Fore
SplineSet
46 168 m 4
 46 194 68 216 94 216 c 4
 120 216 142 194 142 168 c 4
 142 142 120 120 94 120 c 4
 68 120 46 142 46 168 c 4
EndSplineSet
EndChar

StartChar: r
Encoding: 114 114 18
Width: 341
VWidth: 0
Flags: HW
LayerCount: 3
Fore
SplineSet
167 71 m 6
 167 36 172 25 184 25 c 6
 239 23 l 6
 251 23 253 20 253 11 c 4
 253 2 252 -2 239 -2 c 4
 220 -2 195 0 132 0 c 4
 90 0 63 -2 56 -2 c 4
 43 -2 43 2 42 12 c 4
 41 21 46 22 56 23 c 6
 92 25 l 6
 100 26 101 60 101 103 c 6
 101 325 l 2
 101 345 99 350 84 350 c 2
 48 349 l 2
 38 349 35 349 35 360 c 0
 35 372 37 370 49 371 c 0
 85 373 154 378 159 378 c 0
 165 378 167 377 167 369 c 2
 164 312 l 2
 163 300 162 292 171 312 c 0
 195 368 243 398 266 398 c 0
 290 398 321 357 321 350 c 0
 321 341 295 315 282 315 c 0
 267 315 247 347 224 347 c 0
 192 347 167 271 167 226 c 2
 167 71 l 6
EndSplineSet
EndChar

StartChar: s
Encoding: 115 115 19
Width: 187
VWidth: 0
Flags: HW
LayerCount: 3
Fore
SplineSet
46 168 m 4
 46 194 68 216 94 216 c 4
 120 216 142 194 142 168 c 4
 142 142 120 120 94 120 c 4
 68 120 46 142 46 168 c 4
EndSplineSet
EndChar

StartChar: t
Encoding: 116 116 20
Width: 275
VWidth: 0
Flags: W
HStem: -6 45<137 220.62> 348 30<134.127 245.487>
VStem: 68 65<56.4782 341.936>
LayerCount: 3
Fore
SplineSet
142 56 m 0
 153 43 173 39 194 39 c 0
 206 39 221 42 229 45 c 0
 239 48 245 52 248 52 c 0
 251 52 257 48 257 39 c 0
 257 31 215 11 177 0 c 0
 163 -4 150 -6 137 -6 c 0
 94 -6 68 12 68 60 c 2
 68 270 l 2
 68 307 67 342 63 342 c 2
 31 342 l 2
 24 342 22 343 22 345 c 0
 22 348 25 353 28 356 c 0
 44 375 88 437 120 487 c 0
 123 492 129 497 134 497 c 0
 139 497 143 493 143 483 c 0
 143 480 132 409 132 393 c 0
 132 384 135 378 144 378 c 2
 237 378 l 2
 249 378 249 375 246 364 c 0
 242 351 242 348 231 348 c 2
 146 348 l 2
 134 348 133 332 133 313 c 2
 133 100 l 2
 133 89 133 66 142 56 c 0
EndSplineSet
EndChar

StartChar: u
Encoding: 117 117 21
Width: 187
VWidth: 0
Flags: HW
LayerCount: 3
Fore
SplineSet
46 168 m 4
 46 194 68 216 94 216 c 4
 120 216 142 194 142 168 c 4
 142 142 120 120 94 120 c 4
 68 120 46 142 46 168 c 4
EndSplineSet
EndChar

StartChar: v
Encoding: 118 118 22
Width: 187
VWidth: 0
Flags: HW
LayerCount: 3
Fore
SplineSet
46 168 m 4
 46 194 68 216 94 216 c 4
 120 216 142 194 142 168 c 4
 142 142 120 120 94 120 c 4
 68 120 46 142 46 168 c 4
EndSplineSet
EndChar

StartChar: w
Encoding: 119 119 23
Width: 187
VWidth: 0
Flags: HW
LayerCount: 3
Fore
SplineSet
46 168 m 4
 46 194 68 216 94 216 c 4
 120 216 142 194 142 168 c 4
 142 142 120 120 94 120 c 4
 68 120 46 142 46 168 c 4
EndSplineSet
EndChar

StartChar: x
Encoding: 120 120 24
Width: 187
VWidth: 0
Flags: HW
LayerCount: 3
Fore
SplineSet
46 168 m 4
 46 194 68 216 94 216 c 4
 120 216 142 194 142 168 c 4
 142 142 120 120 94 120 c 4
 68 120 46 142 46 168 c 4
EndSplineSet
EndChar

StartChar: y
Encoding: 121 121 25
Width: 187
VWidth: 0
Flags: HW
LayerCount: 3
Fore
SplineSet
46 168 m 4
 46 194 68 216 94 216 c 4
 120 216 142 194 142 168 c 4
 142 142 120 120 94 120 c 4
 68 120 46 142 46 168 c 4
EndSplineSet
EndChar

StartChar: zero
Encoding: 48 48 52
Width: 187
VWidth: 0
Flags: HW
LayerCount: 3
Fore
SplineSet
46 168 m 0
 46 194 68 216 94 216 c 0
 120 216 142 194 142 168 c 0
 142 142 120 120 94 120 c 0
 68 120 46 142 46 168 c 0
EndSplineSet
EndChar

StartChar: one
Encoding: 49 49 53
Width: 187
VWidth: 0
Flags: HW
LayerCount: 3
Fore
SplineSet
46 168 m 0
 46 194 68 216 94 216 c 0
 120 216 142 194 142 168 c 0
 142 142 120 120 94 120 c 0
 68 120 46 142 46 168 c 0
EndSplineSet
EndChar

StartChar: two
Encoding: 50 50 54
Width: 187
VWidth: 0
Flags: HW
LayerCount: 3
Fore
SplineSet
46 168 m 0
 46 194 68 216 94 216 c 0
 120 216 142 194 142 168 c 0
 142 142 120 120 94 120 c 0
 68 120 46 142 46 168 c 0
EndSplineSet
EndChar

StartChar: three
Encoding: 51 51 55
Width: 187
VWidth: 0
Flags: HW
LayerCount: 3
Fore
SplineSet
46 168 m 0
 46 194 68 216 94 216 c 0
 120 216 142 194 142 168 c 0
 142 142 120 120 94 120 c 0
 68 120 46 142 46 168 c 0
EndSplineSet
EndChar

StartChar: four
Encoding: 52 52 56
Width: 187
VWidth: 0
Flags: HW
LayerCount: 3
Fore
SplineSet
46 168 m 0
 46 194 68 216 94 216 c 0
 120 216 142 194 142 168 c 0
 142 142 120 120 94 120 c 0
 68 120 46 142 46 168 c 0
EndSplineSet
EndChar

StartChar: five
Encoding: 53 53 57
Width: 187
VWidth: 0
Flags: HW
LayerCount: 3
Fore
SplineSet
46 168 m 0
 46 194 68 216 94 216 c 0
 120 216 142 194 142 168 c 0
 142 142 120 120 94 120 c 0
 68 120 46 142 46 168 c 0
EndSplineSet
EndChar

StartChar: six
Encoding: 54 54 58
Width: 187
VWidth: 0
Flags: HW
LayerCount: 3
Fore
SplineSet
46 168 m 0
 46 194 68 216 94 216 c 0
 120 216 142 194 142 168 c 0
 142 142 120 120 94 120 c 0
 68 120 46 142 46 168 c 0
EndSplineSet
EndChar

StartChar: seven
Encoding: 55 55 59
Width: 187
VWidth: 0
Flags: HW
LayerCount: 3
Fore
SplineSet
46 168 m 0
 46 194 68 216 94 216 c 0
 120 216 142 194 142 168 c 0
 142 142 120 120 94 120 c 0
 68 120 46 142 46 168 c 0
EndSplineSet
EndChar

StartChar: eight
Encoding: 56 56 60
Width: 187
VWidth: 0
Flags: HW
LayerCount: 3
Fore
SplineSet
46 168 m 0
 46 194 68 216 94 216 c 0
 120 216 142 194 142 168 c 0
 142 142 120 120 94 120 c 0
 68 120 46 142 46 168 c 0
EndSplineSet
EndChar

StartChar: nine
Encoding: 57 57 61
Width: 187
VWidth: 0
Flags: HW
LayerCount: 3
Fore
SplineSet
46 168 m 0
 46 194 68 216 94 216 c 0
 120 216 142 194 142 168 c 0
 142 142 120 120 94 120 c 0
 68 120 46 142 46 168 c 0
EndSplineSet
EndChar

